# 3ds Max Wavefront OBJ Exporter v0.97b - (c)2007 guruware
# File Created: 25.01.2015 21:14:45

mtllib FossileTrilo01_LO.mtl

#
# object SandstoneRawLo
#

v  45.3602 -0.0068 -2.8643
v  45.3372 -0.0080 -2.8565
v  45.3362 0.0137 -2.8580
v  45.3605 0.0164 -2.8635
v  45.3593 -0.0257 -2.8571
v  45.3353 -0.0251 -2.8612
v  45.3336 0.0277 -2.8552
v  45.2772 0.0087 -2.8350
v  45.2746 0.0256 -2.8379
v  45.2780 -0.0093 -2.8352
v  45.2772 -0.0261 -2.8323
v  45.3490 0.0300 -2.8337
v  45.2751 0.0303 -2.8235
v  45.2351 0.0118 -2.8049
v  45.2378 0.0255 -2.8035
v  45.2429 0.0313 -2.8003
v  45.2156 0.0149 -2.7791
v  45.2166 0.0300 -2.7788
v  45.2227 0.0327 -2.7751
v  45.2021 0.0166 -2.7407
v  45.2053 0.0293 -2.7388
v  45.2126 0.0315 -2.7351
v  45.1904 0.0153 -2.7018
v  45.1890 0.0305 -2.6971
v  45.2025 0.0308 -2.7013
v  45.2334 0.0156 -2.6621
v  45.2358 0.0296 -2.6611
v  45.2397 0.0317 -2.6672
v  45.2710 0.0161 -2.6384
v  45.2749 0.0304 -2.6394
v  45.2780 0.0325 -2.6462
v  45.3181 0.0164 -2.6252
v  45.3220 0.0310 -2.6257
v  45.3241 0.0330 -2.6313
v  45.3588 0.0164 -2.6274
v  45.3628 0.0297 -2.6306
v  45.3632 0.0330 -2.6357
v  45.4214 0.0148 -2.6760
v  45.4259 0.0291 -2.6763
v  45.4234 0.0320 -2.6826
v  45.4456 0.0161 -2.7237
v  45.4468 0.0283 -2.7249
v  45.4385 0.0325 -2.7333
v  45.4426 0.0168 -2.8364
v  45.4382 0.0267 -2.8345
v  45.4174 0.0281 -2.8098
v  45.3686 0.0274 -2.8483
v  45.3814 0.0291 -2.8223
v  45.2255 0.0317 -2.7021
v  45.2509 0.0325 -2.7151
v  45.2829 0.0325 -2.7285
v  45.3220 0.0332 -2.7442
v  45.3781 0.0310 -2.7729
v  45.3995 0.0294 -2.7930
v  45.2368 -0.0065 -2.8032
v  45.2337 -0.0249 -2.8053
v  45.2163 -0.0023 -2.7783
v  45.2150 -0.0222 -2.7785
v  45.2021 -0.0011 -2.7404
v  45.2034 -0.0231 -2.7406
v  45.1868 -0.0012 -2.7036
v  45.1816 -0.0230 -2.7042
v  45.2295 -0.0030 -2.6580
v  45.2301 -0.0248 -2.6588
v  45.2673 -0.0016 -2.6335
v  45.2680 -0.0243 -2.6333
v  45.3158 -0.0034 -2.6199
v  45.3158 -0.0246 -2.6199
v  45.3551 -0.0071 -2.6294
v  45.3544 -0.0245 -2.6275
v  45.4224 -0.0087 -2.6731
v  45.4242 -0.0237 -2.6723
v  45.4395 -0.0085 -2.7246
v  45.4399 -0.0251 -2.7253
v  45.4314 -0.0113 -2.8315
v  45.4320 -0.0266 -2.8313
v  45.4291 -0.0300 -2.8289
v  45.4384 -0.0285 -2.7283
v  45.3965 -0.0327 -2.8024
v  45.3610 -0.0289 -2.8533
v  45.3716 -0.0310 -2.7788
v  45.3363 -0.0283 -2.8591
v  45.4231 -0.0270 -2.6750
v  45.3289 -0.0295 -2.7511
v  45.2788 -0.0293 -2.8291
v  45.2888 -0.0293 -2.7256
v  45.2350 -0.0281 -2.8030
v  45.2572 -0.0303 -2.7074
v  45.2165 -0.0256 -2.7758
v  45.2351 -0.0305 -2.6945
v  45.2054 -0.0266 -2.7380
v  45.3536 -0.0278 -2.6304
v  45.3150 -0.0279 -2.6230
v  45.2676 -0.0276 -2.6365
v  45.2307 -0.0283 -2.6621
v  45.1851 -0.0265 -2.7048
# 96 vertices

vn 0.0672 -0.1667 -0.9837
vn -0.2759 0.0120 -0.9611
vn -0.3023 0.0433 -0.9522
vn 0.1008 0.3547 -0.9295
vn 0.1637 -0.4746 -0.8649
vn -0.1662 -0.1500 -0.9746
vn -0.1809 0.7160 -0.6743
vn -0.4591 -0.0992 -0.8828
vn -0.3823 0.4663 -0.7977
vn -0.4547 -0.0653 -0.8882
vn -0.4140 -0.4517 -0.7903
vn 0.0171 0.9965 -0.0816
vn -0.0729 0.9797 -0.1869
vn -0.7179 0.0283 -0.6956
vn -0.6373 0.4729 -0.6085
vn -0.2663 0.9209 -0.2847
vn -0.8725 0.0176 -0.4882
vn -0.6888 0.5857 -0.4272
vn -0.1632 0.9781 -0.1291
vn -0.9406 0.1404 -0.3092
vn -0.6813 0.7080 -0.1860
vn -0.1596 0.9870 -0.0168
vn -0.9752 0.0576 0.2136
vn -0.8045 0.5311 0.2658
vn -0.0393 0.9992 0.0046
vn -0.5903 0.1593 0.7913
vn -0.4545 0.6120 0.6473
vn -0.1104 0.9861 0.1242
vn -0.3885 0.2362 0.8907
vn -0.2912 0.6479 0.7039
vn -0.0692 0.9892 0.1295
vn -0.0817 0.1403 0.9867
vn -0.0728 0.5835 0.8089
vn -0.0139 0.9829 0.1837
vn 0.3282 0.0011 0.9446
vn 0.3623 0.4654 0.8075
vn 0.1784 0.9314 0.3172
vn 0.7770 -0.0756 0.6249
vn 0.7131 0.4029 0.5738
vn 0.2695 0.9531 0.1377
vn 0.9643 -0.1742 0.1997
vn 0.8579 0.4889 0.1583
vn 0.2419 0.9703 -0.0045
vn 0.8117 0.0101 -0.5840
vn 0.4961 0.7461 -0.4442
vn 0.0166 0.9985 -0.0518
vn 0.0936 0.9214 -0.3771
vn 0.0516 0.9965 -0.0663
vn -0.0344 0.9993 0.0130
vn -0.0096 1.0000 0.0021
vn -0.0111 0.9999 -0.0085
vn 0.0025 0.9999 -0.0153
vn 0.0217 0.9993 -0.0301
vn 0.0286 0.9984 -0.0488
vn -0.7052 0.0239 -0.7087
vn -0.6875 -0.2445 -0.6838
vn -0.8703 -0.0068 -0.4925
vn -0.8545 -0.2611 -0.4491
vn -0.9255 -0.0013 -0.3788
vn -0.8505 -0.3722 -0.3717
vn -0.9634 0.1755 0.2029
vn -0.9558 -0.2526 0.1503
vn -0.6310 0.1135 0.7674
vn -0.5904 -0.3557 0.7245
vn -0.4072 0.1584 0.8995
vn -0.3793 -0.3306 0.8642
vn -0.0207 0.1338 0.9908
vn -0.0199 -0.3478 0.9374
vn 0.3558 -0.0002 0.9346
vn 0.3500 -0.3045 0.8859
vn 0.7965 0.0975 0.5967
vn 0.7636 -0.2422 0.5985
vn 0.9838 -0.0936 0.1529
vn 0.9590 -0.2471 0.1390
vn 0.7716 -0.1872 -0.6080
vn 0.7471 -0.3502 -0.5649
vn 0.3886 -0.8754 -0.2876
vn 0.5881 -0.8082 0.0304
vn 0.0028 -1.0000 -0.0092
vn 0.1018 -0.9111 -0.3993
vn -0.0283 -0.9994 0.0185
vn -0.0680 -0.8402 -0.5380
vn 0.4655 -0.8363 0.2896
vn -0.0056 -0.9999 0.0092
vn -0.1761 -0.9322 -0.3161
vn 0.0072 -1.0000 0.0034
vn -0.3730 -0.8700 -0.3225
vn 0.0100 -0.9999 0.0009
vn -0.5078 -0.8397 -0.1926
vn -0.0206 -0.9995 0.0233
vn -0.3813 -0.9038 -0.1942
vn 0.1781 -0.8912 0.4172
vn -0.0355 -0.8927 0.4492
vn -0.2141 -0.8772 0.4298
vn -0.2946 -0.8871 0.3552
vn -0.5252 -0.8496 0.0492
# 96 vertex normals

vt 0.8527 0.1551 0.5376
vt 0.8686 0.1277 0.4832
vt 0.9024 0.1519 0.4868
vt 0.8866 0.1840 0.5312
vt 0.8225 0.1340 0.5124
vt 0.8457 0.1037 0.5023
vt 0.9255 0.1657 0.4730
vt 0.9607 0.0587 0.4130
vt 0.9875 0.0765 0.4312
vt 0.9322 0.0387 0.4095
vt 0.9089 0.0164 0.3966
vt 0.6332 0.8060 0.0000
vt 0.5914 0.7916 0.0000
vt 0.5916 0.6878 0.0000
vt 0.6158 0.6822 0.0000
vt 0.0830 0.9827 0.4312
vt 0.0561 0.9649 0.4130
vt 0.1255 0.8885 0.4078
vt 0.1453 0.9066 0.4015
vt 0.6285 0.6113 0.0000
vt 0.6391 0.6193 0.0000
vt 0.1716 0.8434 0.4194
vt 0.1931 0.8632 0.4229
vt 0.6616 0.5668 0.0000
vt 0.6706 0.5751 0.0000
vt 0.2267 0.7881 0.4416
vt 0.2470 0.8031 0.4360
vt 0.7206 0.5295 0.0000
vt 0.7302 0.5402 0.0000
vt 0.2684 0.7385 0.5115
vt 0.2925 0.7551 0.5305
vt 0.7806 0.4849 0.0000
vt 0.7799 0.5088 0.0000
vt 0.3445 0.6789 0.4531
vt 0.3652 0.6969 0.4544
vt 0.8590 0.5440 0.0000
vt 0.8507 0.5535 0.0000
vt 0.4079 0.6306 0.4525
vt 0.4297 0.6488 0.4458
vt 0.9106 0.5966 0.0000
vt 0.9009 0.6051 0.0000
vt 0.4762 0.5801 0.4711
vt 0.4990 0.5983 0.4692
vt 0.9528 0.6650 0.0000
vt 0.9447 0.6714 0.0000
vt 0.5307 0.5403 0.4904
vt 0.5531 0.5553 0.4811
vt 0.9630 0.7310 0.0000
vt 0.9547 0.7341 0.0000
vt 0.6343 0.4551 0.4852
vt 0.6563 0.4733 0.4931
vt 0.9227 0.8532 0.0000
vt 0.9103 0.8520 0.0000
vt 0.7035 0.3981 0.5050
vt 0.7215 0.4135 0.5027
vt 0.8553 0.9101 0.0000
vt 0.8367 0.9000 0.0000
vt 0.8207 0.2813 0.6267
vt 0.8351 0.2920 0.6045
vt 0.6763 0.9516 0.0000
vt 0.7045 0.9057 0.0000
vt 0.8897 0.2135 0.4827
vt 0.6192 0.8459 0.0000
vt 0.6666 0.8536 0.0000
vt 0.7887 0.5465 0.0000
vt 0.7789 0.5931 0.0000
vt 0.7713 0.6508 0.0000
vt 0.7635 0.7210 0.0000
vt 0.7440 0.8243 0.0000
vt 0.7221 0.8686 0.0000
vt 0.0276 0.9449 0.4095
vt 0.0992 0.8660 0.3909
vt 0.0720 0.8423 0.3983
vt 0.0043 0.9226 0.3966
vt 0.1480 0.8209 0.4072
vt 0.1199 0.7949 0.4025
vt 0.2033 0.7637 0.4324
vt 0.1734 0.7345 0.4159
vt 0.2431 0.7181 0.5146
vt 0.2113 0.6890 0.5219
vt 0.3212 0.6507 0.4691
vt 0.2942 0.6189 0.4570
vt 0.3843 0.6051 0.4729
vt 0.3579 0.5704 0.4685
vt 0.4494 0.5527 0.4931
vt 0.4241 0.5209 0.4935
vt 0.4985 0.5078 0.4823
vt 0.4759 0.4832 0.4916
vt 0.6023 0.4240 0.5052
vt 0.5839 0.4026 0.5195
vt 0.6697 0.3631 0.4939
vt 0.6486 0.3397 0.5037
vt 0.7812 0.2407 0.5917
vt 0.7590 0.2220 0.5992
vt 0.3937 0.4867 0.0000
vt 0.2270 0.4783 0.0000
vt 0.3596 0.4302 0.0000
vt 0.4536 0.3867 0.0000
vt 0.3289 0.3846 0.0000
vt 0.4701 0.3522 0.0000
vt 0.1447 0.4369 0.0000
vt 0.2985 0.3071 0.0000
vt 0.4444 0.2516 0.0000
vt 0.2724 0.2333 0.0000
vt 0.4185 0.1740 0.0000
vt 0.2565 0.1750 0.0000
vt 0.3841 0.1332 0.0000
vt 0.2449 0.1351 0.0000
vt 0.3277 0.1002 0.0000
vt 0.0922 0.3083 0.0000
vt 0.0954 0.2408 0.0000
vt 0.1363 0.1679 0.0000
vt 0.1924 0.1180 0.0000
vt 0.2773 0.0602 0.0000
vt 0.4637 0.3838 0.0000
vt 0.4772 0.3500 0.0000
vt 0.4524 0.2485 0.0000
vt 0.4239 0.1703 0.0000
vt 0.3916 0.1271 0.0000
vt 0.3352 0.0929 0.0000
vt 0.2745 0.0547 0.0000
vt 0.1839 0.1154 0.0000
vt 0.1272 0.1677 0.0000
vt 0.0862 0.2435 0.0000
vt 0.0826 0.3136 0.0000
vt 0.1423 0.4425 0.0000
vt 0.2236 0.4858 0.0000
vt 0.3981 0.4861 0.0000
# 128 texture coords

g SandstoneRawLo
usemtl 02___Default
s 1
f 1/1/1 2/2/2 3/3/3 4/4/4 
f 5/5/5 6/6/6 2/2/2 1/1/1 
f 7/7/7 3/3/3 8/8/8 9/9/9 
f 10/10/10 8/8/8 3/3/3 2/2/2 
f 11/11/11 10/10/10 2/2/2 6/6/6 
f 12/12/12 7/13/7 9/14/9 13/15/13 
f 9/16/9 8/17/8 14/18/14 15/19/15 
f 9/14/9 15/20/15 16/21/16 13/15/13 
f 15/19/15 14/18/14 17/22/17 18/23/18 
f 15/20/15 18/24/18 19/25/19 16/21/16 
f 18/23/18 17/22/17 20/26/20 21/27/21 
f 21/28/21 22/29/22 19/25/19 18/24/18 
f 21/27/21 20/26/20 23/30/23 24/31/24 
f 21/28/21 24/32/24 25/33/25 22/29/22 
f 24/31/24 23/30/23 26/34/26 27/35/27 
f 25/33/25 24/32/24 27/36/27 28/37/28 
f 27/35/27 26/34/26 29/38/29 30/39/30 
f 27/36/27 30/40/30 31/41/31 28/37/28 
f 30/39/30 29/38/29 32/42/32 33/43/33 
f 30/40/30 33/44/33 34/45/34 31/41/31 
f 33/43/33 32/42/32 35/46/35 36/47/36 
f 33/44/33 36/48/36 37/49/37 34/45/34 
f 38/50/38 39/51/39 36/47/36 35/46/35 
f 36/48/36 39/52/39 40/53/40 37/49/37 
f 39/51/39 38/50/38 41/54/41 42/55/42 
f 39/52/39 42/56/42 43/57/43 40/53/40 
f 44/58/44 45/59/45 42/55/42 41/54/41 
f 43/57/43 42/56/42 45/60/45 46/61/46 
f 4/4/4 47/62/47 45/59/45 44/58/44 
f 46/61/46 45/60/45 47/63/47 48/64/48 
f 25/33/25 28/37/28 49/65/49 22/29/22 
f 50/66/50 49/65/49 28/37/28 31/41/31 
f 49/65/49 50/66/50 19/25/19 22/29/22 
f 51/67/51 50/66/50 31/41/31 34/45/34 
f 50/66/50 51/67/51 16/21/16 19/25/19 
f 52/68/52 51/67/51 34/45/34 37/49/37 
f 51/67/51 52/68/52 13/15/13 16/21/16 
f 53/69/53 52/68/52 37/49/37 40/53/40 
f 52/68/52 53/69/53 12/12/12 13/15/13 
f 46/61/46 54/70/54 43/57/43 
f 54/70/54 46/61/46 48/64/48 
f 14/18/14 8/17/8 10/71/10 55/72/55 
f 56/73/56 55/72/55 10/71/10 11/74/11 
f 14/18/14 55/72/55 57/75/57 17/22/17 
f 58/76/58 57/75/57 55/72/55 56/73/56 
f 17/22/17 57/75/57 59/77/59 20/26/20 
f 59/77/59 57/75/57 58/76/58 60/78/60 
f 20/26/20 59/77/59 61/79/61 23/30/23 
f 62/80/62 61/79/61 59/77/59 60/78/60 
f 63/81/63 26/34/26 23/30/23 61/79/61 
f 64/82/64 63/81/63 61/79/61 62/80/62 
f 26/34/26 63/81/63 65/83/65 29/38/29 
f 66/84/66 65/83/65 63/81/63 64/82/64 
f 29/38/29 65/83/65 67/85/67 32/42/32 
f 68/86/68 67/85/67 65/83/65 66/84/66 
f 32/42/32 67/85/67 69/87/69 35/46/35 
f 69/87/69 67/85/67 68/86/68 70/88/70 
f 71/89/71 38/50/38 35/46/35 69/87/69 
f 72/90/72 71/89/71 69/87/69 70/88/70 
f 38/50/38 71/89/71 73/91/73 41/54/41 
f 74/92/74 73/91/73 71/89/71 72/90/72 
f 41/54/41 73/91/73 75/93/75 44/58/44 
f 76/94/76 75/93/75 73/91/73 74/92/74 
f 75/93/75 76/94/76 5/5/5 1/1/1 
f 75/93/75 1/1/1 4/4/4 44/58/44 
f 77/95/77 78/96/78 79/97/79 80/98/80 
f 80/98/80 79/97/79 81/99/81 82/100/82 
f 81/99/81 79/97/79 78/96/78 83/101/83 
f 84/102/84 85/103/85 82/100/82 81/99/81 
f 85/103/85 84/102/84 86/104/86 87/105/87 
f 87/105/87 86/104/86 88/106/88 89/107/89 
f 89/107/89 88/106/88 90/108/90 91/109/91 
f 84/102/84 81/99/81 83/101/83 92/110/92 
f 86/104/86 84/102/84 92/110/92 93/111/93 
f 86/104/86 93/111/93 94/112/94 88/106/88 
f 88/106/88 94/112/94 95/113/95 90/108/90 
f 90/108/90 95/113/95 96/114/96 91/109/91 
f 5/115/5 80/98/80 82/100/82 6/116/6 
f 6/116/6 82/100/82 85/103/85 11/117/11 
f 11/117/11 85/103/85 87/105/87 56/118/56 
f 56/118/56 87/105/87 89/107/89 58/119/58 
f 58/119/58 89/107/89 91/109/91 60/120/60 
f 60/120/60 91/109/91 96/114/96 62/121/62 
f 62/121/62 96/114/96 95/113/95 64/122/64 
f 64/122/64 95/113/95 94/112/94 66/123/66 
f 66/123/66 94/112/94 93/111/93 68/124/68 
f 68/124/68 93/111/93 92/110/92 70/125/70 
f 70/125/70 92/110/92 83/101/83 72/126/72 
f 72/126/72 83/101/83 78/96/78 74/127/74 
f 74/127/74 78/96/78 77/95/77 76/128/76 
f 76/128/76 77/95/77 80/98/80 5/115/5 
f 4/4/4 3/3/3 7/7/7 47/62/47 
f 47/63/47 7/13/7 12/12/12 48/64/48 
f 48/64/48 12/12/12 53/69/53 54/70/54 
f 53/69/53 40/53/40 43/57/43 54/70/54 
# 93 polygons - 2 triangles

